<svg width="1800" height="1200" viewBox="0 0 1800 1200" fill="none" xmlns="http://www.w3.org/2000/svg">
<g clip-path="url(#clip0_210_2)">
<rect width="1800" height="1200" fill="black"/>
<rect x="-506.123" y="825.433" width="2424" height="50" transform="rotate(-30 -506.123 825.433)" fill="white" fill-opacity="0.2"/>
<rect x="-556.123" y="738.83" width="2424" height="50" transform="rotate(-30 -556.123 738.83)" fill="white" fill-opacity="0.2"/>
<rect x="-606.123" y="652.228" width="2424" height="50" transform="rotate(-30 -606.123 652.228)" fill="white" fill-opacity="0.2"/>
<rect x="-656.123" y="565.625" width="2424" height="50" transform="rotate(-30 -656.123 565.625)" fill="white" fill-opacity="0.2"/>
<rect x="-706.123" y="479.023" width="2424" height="50" transform="rotate(-30 -706.123 479.023)" fill="white" fill-opacity="0.2"/>
<rect x="-756.123" y="392.42" width="2424" height="50" transform="rotate(-30 -756.123 392.42)" fill="white" fill-opacity="0.2"/>
<rect x="-456.123" y="912.035" width="2424" height="50" transform="rotate(-30 -456.123 912.035)" fill="white" fill-opacity="0.2"/>
<rect x="-406.123" y="998.638" width="2424" height="50" transform="rotate(-30 -406.123 998.638)" fill="white" fill-opacity="0.2"/>
<rect x="-356.123" y="1085.24" width="2424" height="50" transform="rotate(-30 -356.123 1085.24)" fill="white" fill-opacity="0.2"/>
<rect x="-306.123" y="1171.84" width="2424" height="50" transform="rotate(-30 -306.123 1171.84)" fill="white" fill-opacity="0.2"/>
<rect x="-256.123" y="1258.45" width="2424" height="50" transform="rotate(-30 -256.123 1258.45)" fill="white" fill-opacity="0.2"/>
<rect x="-206.123" y="1345.05" width="2424" height="50" transform="rotate(-30 -206.123 1345.05)" fill="white" fill-opacity="0.2"/>
<rect x="-156.123" y="1431.65" width="2424" height="50" transform="rotate(-30 -156.123 1431.65)" fill="white" fill-opacity="0.2"/>
<rect x="-106.123" y="1518.25" width="2424" height="50" transform="rotate(-30 -106.123 1518.25)" fill="white" fill-opacity="0.2"/>
<rect x="-56.1228" y="1604.86" width="2424" height="50" transform="rotate(-30 -56.1228 1604.86)" fill="white" fill-opacity="0.2"/>
<rect x="-6.1228" y="1691.46" width="2424" height="50" transform="rotate(-30 -6.1228 1691.46)" fill="white" fill-opacity="0.2"/>
<rect x="43.8772" y="1778.06" width="2424" height="50" transform="rotate(-30 43.8772 1778.06)" fill="white" fill-opacity="0.2"/>
<rect x="93.8772" y="1864.66" width="2424" height="50" transform="rotate(-30 93.8772 1864.66)" fill="white" fill-opacity="0.2"/>
<rect x="143.877" y="1951.27" width="2424" height="50" transform="rotate(-30 143.877 1951.27)" fill="white" fill-opacity="0.2"/>
<rect x="193.877" y="2037.87" width="2424" height="50" transform="rotate(-30 193.877 2037.87)" fill="white" fill-opacity="0.2"/>
<rect x="243.877" y="2124.47" width="2424" height="50" transform="rotate(-30 243.877 2124.47)" fill="white" fill-opacity="0.2"/>
<rect x="293.877" y="2211.07" width="2424" height="50" transform="rotate(-30 293.877 2211.07)" fill="white" fill-opacity="0.2"/>
<rect x="343.877" y="2297.68" width="2424" height="50" transform="rotate(-30 343.877 2297.68)" fill="white" fill-opacity="0.2"/>
<rect x="393.877" y="2384.28" width="2424" height="50" transform="rotate(-30 393.877 2384.28)" fill="white" fill-opacity="0.2"/>
</g>
<defs>
<clipPath id="clip0_210_2">
<rect width="1800" height="1200" fill="white"/>
</clipPath>
</defs>
</svg>
